<mxfile host="Electron" modified="2023-05-06T19:20:28.794Z" agent="Mozilla/5.0 (Windows NT 10.0; Win64; x64) AppleWebKit/537.36 (KHTML, like Gecko) draw.io/21.2.8 Chrome/112.0.5615.165 Electron/24.2.0 Safari/537.36" etag="Dq1Uw6U2bxe9mxGcjNCk" version="21.2.8" type="device">
  <diagram id="C5RBs43oDa-KdzZeNtuy" name="Page-1">
    <mxGraphModel dx="1195" dy="703" grid="1" gridSize="10" guides="1" tooltips="1" connect="1" arrows="1" fold="1" page="1" pageScale="1" pageWidth="827" pageHeight="1169" math="0" shadow="0">
      <root>
        <mxCell id="WIyWlLk6GJQsqaUBKTNV-0" />
        <mxCell id="WIyWlLk6GJQsqaUBKTNV-1" parent="WIyWlLk6GJQsqaUBKTNV-0" />
        <mxCell id="DoHjyt7_0O7BHmqybZxs-0" value="ShoppingCart" style="swimlane;fontStyle=1;align=center;verticalAlign=top;childLayout=stackLayout;horizontal=1;startSize=26;horizontalStack=0;resizeParent=1;resizeParentMax=0;resizeLast=0;collapsible=1;marginBottom=0;whiteSpace=wrap;html=1;" vertex="1" parent="WIyWlLk6GJQsqaUBKTNV-1">
          <mxGeometry x="39" y="40" width="240" height="180" as="geometry" />
        </mxCell>
        <mxCell id="DoHjyt7_0O7BHmqybZxs-1" value="- shippingStrategy:&amp;nbsp;ShippingStrategy&lt;br&gt;- items: Product[]" style="text;strokeColor=none;fillColor=none;align=left;verticalAlign=top;spacingLeft=4;spacingRight=4;overflow=hidden;rotatable=0;points=[[0,0.5],[1,0.5]];portConstraint=eastwest;whiteSpace=wrap;html=1;" vertex="1" parent="DoHjyt7_0O7BHmqybZxs-0">
          <mxGeometry y="26" width="240" height="44" as="geometry" />
        </mxCell>
        <mxCell id="DoHjyt7_0O7BHmqybZxs-2" value="" style="line;strokeWidth=1;fillColor=none;align=left;verticalAlign=middle;spacingTop=-1;spacingLeft=3;spacingRight=3;rotatable=0;labelPosition=right;points=[];portConstraint=eastwest;strokeColor=inherit;" vertex="1" parent="DoHjyt7_0O7BHmqybZxs-0">
          <mxGeometry y="70" width="240" height="8" as="geometry" />
        </mxCell>
        <mxCell id="DoHjyt7_0O7BHmqybZxs-3" value="+&amp;nbsp;setShippingStrategy(shippingStrategy)&lt;br&gt;+&amp;nbsp;addItem(product): void&lt;br&gt;+&amp;nbsp;calculateTotal(): Money&lt;br&gt;&lt;br&gt;-&amp;nbsp;calculateProductsTotal(): Money&lt;br&gt;- calculateShippingCost(): Money" style="text;strokeColor=none;fillColor=none;align=left;verticalAlign=top;spacingLeft=4;spacingRight=4;overflow=hidden;rotatable=0;points=[[0,0.5],[1,0.5]];portConstraint=eastwest;whiteSpace=wrap;html=1;" vertex="1" parent="DoHjyt7_0O7BHmqybZxs-0">
          <mxGeometry y="78" width="240" height="102" as="geometry" />
        </mxCell>
        <mxCell id="DoHjyt7_0O7BHmqybZxs-4" value="&lt;p style=&quot;margin:0px;margin-top:4px;text-align:center;&quot;&gt;&lt;i&gt;&amp;lt;&amp;lt;Interface&amp;gt;&amp;gt;&lt;/i&gt;&lt;br&gt;&lt;b&gt;ShippingStrategy&lt;/b&gt;&lt;br&gt;&lt;/p&gt;&lt;hr size=&quot;1&quot;&gt;&lt;p style=&quot;margin:0px;margin-left:4px;&quot;&gt;&lt;/p&gt;&lt;p style=&quot;margin:0px;margin-left:4px;&quot;&gt;+ calculateShippingCost(...): Money&lt;br&gt;&lt;/p&gt;" style="verticalAlign=top;align=left;overflow=fill;fontSize=12;fontFamily=Helvetica;html=1;whiteSpace=wrap;" vertex="1" parent="WIyWlLk6GJQsqaUBKTNV-1">
          <mxGeometry x="429" y="86.5" width="220" height="87" as="geometry" />
        </mxCell>
        <mxCell id="DoHjyt7_0O7BHmqybZxs-5" value="DomesticShippingStrategy" style="swimlane;fontStyle=1;align=center;verticalAlign=top;childLayout=stackLayout;horizontal=1;startSize=26;horizontalStack=0;resizeParent=1;resizeParentMax=0;resizeLast=0;collapsible=1;marginBottom=0;whiteSpace=wrap;html=1;" vertex="1" parent="WIyWlLk6GJQsqaUBKTNV-1">
          <mxGeometry x="289" y="240" width="220" height="86" as="geometry" />
        </mxCell>
        <mxCell id="DoHjyt7_0O7BHmqybZxs-6" value="..." style="text;strokeColor=none;fillColor=none;align=left;verticalAlign=top;spacingLeft=4;spacingRight=4;overflow=hidden;rotatable=0;points=[[0,0.5],[1,0.5]];portConstraint=eastwest;whiteSpace=wrap;html=1;" vertex="1" parent="DoHjyt7_0O7BHmqybZxs-5">
          <mxGeometry y="26" width="220" height="26" as="geometry" />
        </mxCell>
        <mxCell id="DoHjyt7_0O7BHmqybZxs-7" value="" style="line;strokeWidth=1;fillColor=none;align=left;verticalAlign=middle;spacingTop=-1;spacingLeft=3;spacingRight=3;rotatable=0;labelPosition=right;points=[];portConstraint=eastwest;strokeColor=inherit;" vertex="1" parent="DoHjyt7_0O7BHmqybZxs-5">
          <mxGeometry y="52" width="220" height="8" as="geometry" />
        </mxCell>
        <mxCell id="DoHjyt7_0O7BHmqybZxs-8" value="+ calculateShippingCost(...): Money" style="text;strokeColor=none;fillColor=none;align=left;verticalAlign=top;spacingLeft=4;spacingRight=4;overflow=hidden;rotatable=0;points=[[0,0.5],[1,0.5]];portConstraint=eastwest;whiteSpace=wrap;html=1;" vertex="1" parent="DoHjyt7_0O7BHmqybZxs-5">
          <mxGeometry y="60" width="220" height="26" as="geometry" />
        </mxCell>
        <mxCell id="DoHjyt7_0O7BHmqybZxs-9" value="InternationalShippingStrategy" style="swimlane;fontStyle=1;align=center;verticalAlign=top;childLayout=stackLayout;horizontal=1;startSize=26;horizontalStack=0;resizeParent=1;resizeParentMax=0;resizeLast=0;collapsible=1;marginBottom=0;whiteSpace=wrap;html=1;" vertex="1" parent="WIyWlLk6GJQsqaUBKTNV-1">
          <mxGeometry x="569" y="240" width="220" height="86" as="geometry" />
        </mxCell>
        <mxCell id="DoHjyt7_0O7BHmqybZxs-10" value="..." style="text;strokeColor=none;fillColor=none;align=left;verticalAlign=top;spacingLeft=4;spacingRight=4;overflow=hidden;rotatable=0;points=[[0,0.5],[1,0.5]];portConstraint=eastwest;whiteSpace=wrap;html=1;" vertex="1" parent="DoHjyt7_0O7BHmqybZxs-9">
          <mxGeometry y="26" width="220" height="26" as="geometry" />
        </mxCell>
        <mxCell id="DoHjyt7_0O7BHmqybZxs-11" value="" style="line;strokeWidth=1;fillColor=none;align=left;verticalAlign=middle;spacingTop=-1;spacingLeft=3;spacingRight=3;rotatable=0;labelPosition=right;points=[];portConstraint=eastwest;strokeColor=inherit;" vertex="1" parent="DoHjyt7_0O7BHmqybZxs-9">
          <mxGeometry y="52" width="220" height="8" as="geometry" />
        </mxCell>
        <mxCell id="DoHjyt7_0O7BHmqybZxs-12" value="+ calculateShippingCost(...): Money" style="text;strokeColor=none;fillColor=none;align=left;verticalAlign=top;spacingLeft=4;spacingRight=4;overflow=hidden;rotatable=0;points=[[0,0.5],[1,0.5]];portConstraint=eastwest;whiteSpace=wrap;html=1;" vertex="1" parent="DoHjyt7_0O7BHmqybZxs-9">
          <mxGeometry y="60" width="220" height="26" as="geometry" />
        </mxCell>
        <mxCell id="DoHjyt7_0O7BHmqybZxs-13" value="" style="endArrow=open;html=1;endSize=12;startArrow=diamondThin;startSize=14;startFill=0;edgeStyle=orthogonalEdgeStyle;align=left;verticalAlign=bottom;rounded=0;" edge="1" parent="WIyWlLk6GJQsqaUBKTNV-1" source="DoHjyt7_0O7BHmqybZxs-0" target="DoHjyt7_0O7BHmqybZxs-4">
          <mxGeometry x="-1" y="3" relative="1" as="geometry">
            <mxPoint x="289" y="210" as="sourcePoint" />
            <mxPoint x="449" y="210" as="targetPoint" />
          </mxGeometry>
        </mxCell>
        <mxCell id="DoHjyt7_0O7BHmqybZxs-14" value="" style="endArrow=block;endSize=16;endFill=0;html=1;rounded=0;edgeStyle=orthogonalEdgeStyle;" edge="1" parent="WIyWlLk6GJQsqaUBKTNV-1" source="DoHjyt7_0O7BHmqybZxs-5" target="DoHjyt7_0O7BHmqybZxs-4">
          <mxGeometry width="160" relative="1" as="geometry">
            <mxPoint x="129" y="400" as="sourcePoint" />
            <mxPoint x="289" y="400" as="targetPoint" />
            <Array as="points">
              <mxPoint x="399" y="210" />
              <mxPoint x="539" y="210" />
            </Array>
          </mxGeometry>
        </mxCell>
        <mxCell id="DoHjyt7_0O7BHmqybZxs-15" value="" style="endArrow=block;endSize=16;endFill=0;html=1;rounded=0;edgeStyle=orthogonalEdgeStyle;" edge="1" parent="WIyWlLk6GJQsqaUBKTNV-1" source="DoHjyt7_0O7BHmqybZxs-9" target="DoHjyt7_0O7BHmqybZxs-4">
          <mxGeometry width="160" relative="1" as="geometry">
            <mxPoint x="409" y="250" as="sourcePoint" />
            <mxPoint x="549" y="184" as="targetPoint" />
            <Array as="points">
              <mxPoint x="679" y="210" />
              <mxPoint x="539" y="210" />
            </Array>
          </mxGeometry>
        </mxCell>
      </root>
    </mxGraphModel>
  </diagram>
</mxfile>
